<svg xmlns="http://www.w3.org/2000/svg" xmlns:xlink="http://www.w3.org/1999/xlink" width="500" zoomAndPan="magnify" viewBox="0 0 375 374.999991" height="500" preserveAspectRatio="xMidYMid meet" version="1.0"><defs><clipPath id="505d3a06ec"><path d="M 324 85 L 359.441406 85 L 359.441406 120 L 324 120 Z M 324 85 " clip-rule="nonzero"/></clipPath><clipPath id="56b7b3c2fc"><path d="M 346.199219 86.242188 C 345.3125 86.023438 344.414062 85.878906 343.503906 85.800781 C 342.59375 85.726562 341.683594 85.722656 340.773438 85.792969 C 339.863281 85.863281 338.964844 86.003906 338.078125 86.214844 C 337.1875 86.425781 336.324219 86.707031 335.480469 87.058594 C 334.636719 87.410156 333.828125 87.824219 333.050781 88.304688 C 332.273438 88.785156 331.539062 89.320312 330.847656 89.917969 C 330.15625 90.515625 329.515625 91.160156 328.925781 91.859375 C 328.339844 92.558594 327.808594 93.296875 327.339844 94.082031 C 327.074219 94.679688 326.742188 95.210938 326.476562 95.742188 C 326.011719 96.671875 325.679688 97.644531 325.480469 98.664062 C 325.34375 99.207031 325.234375 99.757812 325.148438 100.3125 C 325.066406 100.867188 325.011719 101.421875 324.984375 101.984375 C 324.957031 102.542969 324.957031 103.101562 324.980469 103.664062 C 325.007812 104.222656 325.0625 104.78125 325.144531 105.335938 C 325.226562 105.890625 325.335938 106.441406 325.472656 106.984375 C 325.605469 107.527344 325.769531 108.0625 325.957031 108.59375 C 326.144531 109.121094 326.359375 109.636719 326.597656 110.144531 C 326.835938 110.652344 327.101562 111.148438 327.386719 111.628906 C 327.675781 112.109375 327.984375 112.574219 328.320312 113.027344 C 328.652344 113.476562 329.007812 113.910156 329.382812 114.328125 C 329.757812 114.742188 330.152344 115.140625 330.570312 115.515625 C 330.984375 115.894531 331.414062 116.25 331.863281 116.585938 C 332.316406 116.917969 332.78125 117.230469 333.261719 117.519531 C 333.742188 117.808594 334.234375 118.074219 334.742188 118.316406 C 335.246094 118.554688 335.761719 118.773438 336.292969 118.960938 C 336.820312 119.152344 337.355469 119.316406 337.898438 119.453125 C 338.769531 119.664062 339.648438 119.804688 340.542969 119.878906 C 341.4375 119.949219 342.328125 119.957031 343.222656 119.890625 C 344.117188 119.824219 345 119.691406 345.871094 119.488281 C 346.746094 119.285156 347.597656 119.019531 348.429688 118.683594 C 349.257812 118.351562 350.058594 117.953125 350.828125 117.496094 C 351.597656 117.035156 352.328125 116.523438 353.019531 115.949219 C 353.707031 115.378906 354.351562 114.757812 354.945312 114.085938 C 355.539062 113.414062 356.074219 112.703125 356.558594 111.949219 L 357.820312 109.421875 L 357.886719 109.421875 C 358.222656 108.628906 358.488281 107.808594 358.683594 106.964844 C 358.816406 106.421875 358.921875 105.875 359 105.320312 C 359.078125 104.765625 359.128906 104.210938 359.152344 103.648438 C 359.175781 103.089844 359.171875 102.53125 359.140625 101.972656 C 359.109375 101.414062 359.050781 100.859375 358.96875 100.304688 C 358.882812 99.753906 358.769531 99.207031 358.632812 98.664062 C 358.496094 98.121094 358.332031 97.585938 358.140625 97.0625 C 357.949219 96.535156 357.734375 96.019531 357.492188 95.515625 C 357.253906 95.011719 356.988281 94.519531 356.699219 94.039062 C 356.410156 93.558594 356.097656 93.09375 355.765625 92.648438 C 355.429688 92.199219 355.074219 91.765625 354.699219 91.351562 C 354.324219 90.9375 353.929688 90.542969 353.515625 90.167969 C 353.097656 89.792969 352.667969 89.4375 352.21875 89.105469 C 351.769531 88.769531 351.304688 88.460938 350.824219 88.171875 C 350.347656 87.882812 349.855469 87.621094 349.347656 87.378906 C 348.84375 87.140625 348.328125 86.925781 347.800781 86.734375 C 347.273438 86.542969 346.742188 86.382812 346.199219 86.242188 Z M 346.199219 86.242188 " clip-rule="nonzero"/></clipPath><linearGradient x1="703.124685" gradientTransform="matrix(0.650294, 0.13469, -0.134669, 0.650391, -109.434922, -119.323907)" y1="189.63" x2="764.03417" gradientUnits="userSpaceOnUse" y2="189.63" id="9630e4534e"><stop stop-opacity="1" stop-color="rgb(15.299988%, 44.299316%, 87.799072%)" offset="0"/><stop stop-opacity="1" stop-color="rgb(15.299988%, 44.299316%, 87.799072%)" offset="0.0625"/><stop stop-opacity="1" stop-color="rgb(15.405273%, 44.137573%, 87.675476%)" offset="0.09375"/><stop stop-opacity="1" stop-color="rgb(15.611267%, 43.823242%, 87.432861%)" offset="0.109375"/><stop stop-opacity="1" stop-color="rgb(15.812683%, 43.516541%, 87.194824%)" offset="0.125"/><stop stop-opacity="1" stop-color="rgb(16.015625%, 43.208313%, 86.958313%)" offset="0.140625"/><stop stop-opacity="1" stop-color="rgb(16.217041%, 42.900085%, 86.720276%)" offset="0.15625"/><stop stop-opacity="1" stop-color="rgb(16.419983%, 42.593384%, 86.483765%)" offset="0.171875"/><stop stop-opacity="1" stop-color="rgb(16.621399%, 42.285156%, 86.245728%)" offset="0.1875"/><stop stop-opacity="1" stop-color="rgb(16.824341%, 41.978455%, 86.009216%)" offset="0.203125"/><stop stop-opacity="1" stop-color="rgb(17.025757%, 41.670227%, 85.771179%)" offset="0.21875"/><stop stop-opacity="1" stop-color="rgb(17.228699%, 41.363525%, 85.534668%)" offset="0.234375"/><stop stop-opacity="1" stop-color="rgb(17.430115%, 41.055298%, 85.296631%)" offset="0.25"/><stop stop-opacity="1" stop-color="rgb(17.590332%, 40.80658%, 85.110474%)" offset="0.257812"/><stop stop-opacity="1" stop-color="rgb(17.724609%, 40.58075%, 84.95636%)" offset="0.265625"/><stop stop-opacity="1" stop-color="rgb(17.875671%, 40.319824%, 84.783936%)" offset="0.273438"/><stop stop-opacity="1" stop-color="rgb(18.026733%, 40.058899%, 84.613037%)" offset="0.28125"/><stop stop-opacity="1" stop-color="rgb(18.177795%, 39.796448%, 84.440613%)" offset="0.289062"/><stop stop-opacity="1" stop-color="rgb(18.328857%, 39.535522%, 84.268188%)" offset="0.296875"/><stop stop-opacity="1" stop-color="rgb(18.479919%, 39.274597%, 84.09729%)" offset="0.304688"/><stop stop-opacity="1" stop-color="rgb(18.632507%, 39.012146%, 83.924866%)" offset="0.3125"/><stop stop-opacity="1" stop-color="rgb(18.783569%, 38.751221%, 83.753967%)" offset="0.320312"/><stop stop-opacity="1" stop-color="rgb(18.934631%, 38.490295%, 83.581543%)" offset="0.328125"/><stop stop-opacity="1" stop-color="rgb(19.085693%, 38.227844%, 83.410645%)" offset="0.335938"/><stop stop-opacity="1" stop-color="rgb(19.236755%, 37.966919%, 83.23822%)" offset="0.34375"/><stop stop-opacity="1" stop-color="rgb(19.387817%, 37.705994%, 83.067322%)" offset="0.351563"/><stop stop-opacity="1" stop-color="rgb(19.538879%, 37.443542%, 82.894897%)" offset="0.359375"/><stop stop-opacity="1" stop-color="rgb(19.689941%, 37.182617%, 82.723999%)" offset="0.367188"/><stop stop-opacity="1" stop-color="rgb(19.841003%, 36.920166%, 82.551575%)" offset="0.375"/><stop stop-opacity="1" stop-color="rgb(19.993591%, 36.659241%, 82.37915%)" offset="0.382812"/><stop stop-opacity="1" stop-color="rgb(20.144653%, 36.398315%, 82.208252%)" offset="0.390625"/><stop stop-opacity="1" stop-color="rgb(20.295715%, 36.135864%, 82.035828%)" offset="0.398438"/><stop stop-opacity="1" stop-color="rgb(20.446777%, 35.874939%, 81.864929%)" offset="0.40625"/><stop stop-opacity="1" stop-color="rgb(20.597839%, 35.614014%, 81.692505%)" offset="0.414063"/><stop stop-opacity="1" stop-color="rgb(20.748901%, 35.351562%, 81.521606%)" offset="0.421875"/><stop stop-opacity="1" stop-color="rgb(20.899963%, 35.090637%, 81.349182%)" offset="0.429687"/><stop stop-opacity="1" stop-color="rgb(21.051025%, 34.829712%, 81.178284%)" offset="0.4375"/><stop stop-opacity="1" stop-color="rgb(21.202087%, 34.567261%, 81.005859%)" offset="0.445312"/><stop stop-opacity="1" stop-color="rgb(21.353149%, 34.306335%, 80.834961%)" offset="0.453125"/><stop stop-opacity="1" stop-color="rgb(21.505737%, 34.04541%, 80.662537%)" offset="0.460938"/><stop stop-opacity="1" stop-color="rgb(21.656799%, 33.782959%, 80.490112%)" offset="0.46875"/><stop stop-opacity="1" stop-color="rgb(21.807861%, 33.522034%, 80.319214%)" offset="0.476562"/><stop stop-opacity="1" stop-color="rgb(21.958923%, 33.261108%, 80.14679%)" offset="0.484375"/><stop stop-opacity="1" stop-color="rgb(22.109985%, 32.998657%, 79.975891%)" offset="0.492188"/><stop stop-opacity="1" stop-color="rgb(22.261047%, 32.737732%, 79.803467%)" offset="0.5"/><stop stop-opacity="1" stop-color="rgb(22.412109%, 32.476807%, 79.632568%)" offset="0.507812"/><stop stop-opacity="1" stop-color="rgb(22.563171%, 32.214355%, 79.460144%)" offset="0.515625"/><stop stop-opacity="1" stop-color="rgb(22.714233%, 31.95343%, 79.289246%)" offset="0.523438"/><stop stop-opacity="1" stop-color="rgb(22.866821%, 31.692505%, 79.116821%)" offset="0.53125"/><stop stop-opacity="1" stop-color="rgb(23.017883%, 31.430054%, 78.945923%)" offset="0.539063"/><stop stop-opacity="1" stop-color="rgb(23.168945%, 31.169128%, 78.773499%)" offset="0.546875"/><stop stop-opacity="1" stop-color="rgb(23.320007%, 30.908203%, 78.601074%)" offset="0.554688"/><stop stop-opacity="1" stop-color="rgb(23.478699%, 30.635071%, 78.419495%)" offset="0.5625"/><stop stop-opacity="1" stop-color="rgb(23.657227%, 30.329895%, 78.207397%)" offset="0.570312"/><stop stop-opacity="1" stop-color="rgb(23.849487%, 30.001831%, 77.973938%)" offset="0.578125"/><stop stop-opacity="1" stop-color="rgb(24.043274%, 29.673767%, 77.738953%)" offset="0.585938"/><stop stop-opacity="1" stop-color="rgb(24.235535%, 29.345703%, 77.505493%)" offset="0.59375"/><stop stop-opacity="1" stop-color="rgb(24.429321%, 29.016113%, 77.272034%)" offset="0.601562"/><stop stop-opacity="1" stop-color="rgb(24.623108%, 28.688049%, 77.038574%)" offset="0.609375"/><stop stop-opacity="1" stop-color="rgb(24.815369%, 28.359985%, 76.803589%)" offset="0.617188"/><stop stop-opacity="1" stop-color="rgb(25.009155%, 28.031921%, 76.570129%)" offset="0.625"/><stop stop-opacity="1" stop-color="rgb(25.201416%, 27.703857%, 76.33667%)" offset="0.632813"/><stop stop-opacity="1" stop-color="rgb(25.395203%, 27.375793%, 76.101685%)" offset="0.640625"/><stop stop-opacity="1" stop-color="rgb(25.587463%, 27.046204%, 75.868225%)" offset="0.648438"/><stop stop-opacity="1" stop-color="rgb(25.78125%, 26.71814%, 75.634766%)" offset="0.65625"/><stop stop-opacity="1" stop-color="rgb(25.975037%, 26.390076%, 75.39978%)" offset="0.664062"/><stop stop-opacity="1" stop-color="rgb(26.167297%, 26.062012%, 75.166321%)" offset="0.671875"/><stop stop-opacity="1" stop-color="rgb(26.361084%, 25.733948%, 74.932861%)" offset="0.679688"/><stop stop-opacity="1" stop-color="rgb(26.553345%, 25.405884%, 74.699402%)" offset="0.6875"/><stop stop-opacity="1" stop-color="rgb(26.747131%, 25.076294%, 74.464417%)" offset="0.695312"/><stop stop-opacity="1" stop-color="rgb(26.939392%, 24.74823%, 74.230957%)" offset="0.703125"/><stop stop-opacity="1" stop-color="rgb(27.133179%, 24.420166%, 73.997498%)" offset="0.710938"/><stop stop-opacity="1" stop-color="rgb(27.326965%, 24.092102%, 73.762512%)" offset="0.71875"/><stop stop-opacity="1" stop-color="rgb(27.519226%, 23.764038%, 73.529053%)" offset="0.726562"/><stop stop-opacity="1" stop-color="rgb(27.713013%, 23.435974%, 73.295593%)" offset="0.734375"/><stop stop-opacity="1" stop-color="rgb(27.905273%, 23.106384%, 73.062134%)" offset="0.742188"/><stop stop-opacity="1" stop-color="rgb(28.09906%, 22.77832%, 72.827148%)" offset="0.75"/><stop stop-opacity="1" stop-color="rgb(28.291321%, 22.450256%, 72.593689%)" offset="0.757812"/><stop stop-opacity="1" stop-color="rgb(28.485107%, 22.122192%, 72.360229%)" offset="0.765625"/><stop stop-opacity="1" stop-color="rgb(28.678894%, 21.794128%, 72.125244%)" offset="0.773438"/><stop stop-opacity="1" stop-color="rgb(28.871155%, 21.464539%, 71.891785%)" offset="0.78125"/><stop stop-opacity="1" stop-color="rgb(29.064941%, 21.136475%, 71.658325%)" offset="0.789062"/><stop stop-opacity="1" stop-color="rgb(29.257202%, 20.808411%, 71.424866%)" offset="0.796875"/><stop stop-opacity="1" stop-color="rgb(29.450989%, 20.480347%, 71.18988%)" offset="0.804688"/><stop stop-opacity="1" stop-color="rgb(29.64325%, 20.152283%, 70.956421%)" offset="0.8125"/><stop stop-opacity="1" stop-color="rgb(29.837036%, 19.824219%, 70.722961%)" offset="0.820312"/><stop stop-opacity="1" stop-color="rgb(30.030823%, 19.494629%, 70.487976%)" offset="0.828125"/><stop stop-opacity="1" stop-color="rgb(30.223083%, 19.166565%, 70.254517%)" offset="0.835938"/><stop stop-opacity="1" stop-color="rgb(30.41687%, 18.838501%, 70.021057%)" offset="0.84375"/><stop stop-opacity="1" stop-color="rgb(30.609131%, 18.510437%, 69.786072%)" offset="0.851562"/><stop stop-opacity="1" stop-color="rgb(30.802917%, 18.182373%, 69.552612%)" offset="0.859375"/><stop stop-opacity="1" stop-color="rgb(30.995178%, 17.854309%, 69.319153%)" offset="0.867187"/><stop stop-opacity="1" stop-color="rgb(31.188965%, 17.524719%, 69.085693%)" offset="0.875"/><stop stop-opacity="1" stop-color="rgb(31.382751%, 17.196655%, 68.850708%)" offset="0.882812"/><stop stop-opacity="1" stop-color="rgb(31.575012%, 16.868591%, 68.617249%)" offset="0.890625"/><stop stop-opacity="1" stop-color="rgb(31.768799%, 16.540527%, 68.383789%)" offset="0.898438"/><stop stop-opacity="1" stop-color="rgb(31.96106%, 16.212463%, 68.148804%)" offset="0.90625"/><stop stop-opacity="1" stop-color="rgb(32.154846%, 15.884399%, 67.915344%)" offset="0.914062"/><stop stop-opacity="1" stop-color="rgb(32.347107%, 15.55481%, 67.681885%)" offset="0.921875"/><stop stop-opacity="1" stop-color="rgb(32.472229%, 15.345764%, 67.532349%)" offset="0.9375"/><stop stop-opacity="1" stop-color="rgb(32.499695%, 15.299988%, 67.498779%)" offset="1"/></linearGradient><clipPath id="3161f29c3e"><path d="M 323 260 L 358 260 L 358 295 L 323 295 Z M 323 260 " clip-rule="nonzero"/></clipPath><clipPath id="c0035833f4"><path d="M 345.003906 260.859375 C 344.117188 260.640625 343.21875 260.492188 342.308594 260.417969 C 341.398438 260.34375 340.488281 260.339844 339.578125 260.40625 C 338.667969 260.476562 337.769531 260.617188 336.882812 260.832031 C 335.992188 261.042969 335.128906 261.324219 334.285156 261.675781 C 333.441406 262.027344 332.632812 262.441406 331.855469 262.917969 C 331.078125 263.398438 330.34375 263.9375 329.652344 264.535156 C 328.960938 265.128906 328.320312 265.777344 327.730469 266.476562 C 327.144531 267.171875 326.613281 267.914062 326.144531 268.695312 L 325.214844 270.355469 C 324.8125 271.308594 324.480469 272.28125 324.21875 273.28125 C 323.96875 274.261719 323.804688 275.257812 323.734375 276.269531 C 323.660156 277.28125 323.679688 278.292969 323.785156 279.300781 C 323.890625 280.308594 324.085938 281.300781 324.367188 282.273438 C 324.652344 283.246094 325.019531 284.1875 325.46875 285.097656 C 325.917969 286.007812 326.441406 286.867188 327.046875 287.683594 C 327.648438 288.5 328.316406 289.253906 329.054688 289.953125 C 329.792969 290.648438 330.585938 291.273438 331.433594 291.832031 C 332.28125 292.386719 333.171875 292.863281 334.101562 293.261719 C 335.035156 293.660156 335.996094 293.972656 336.984375 294.199219 C 337.972656 294.425781 338.972656 294.5625 339.984375 294.613281 C 340.996094 294.664062 342.007812 294.625 343.011719 294.492188 C 344.015625 294.363281 345.003906 294.148438 345.972656 293.84375 C 346.9375 293.539062 347.871094 293.152344 348.769531 292.679688 C 349.667969 292.210938 350.515625 291.664062 351.316406 291.042969 C 352.121094 290.421875 352.859375 289.734375 353.539062 288.984375 C 354.21875 288.230469 354.828125 287.425781 355.363281 286.5625 C 355.828125 285.765625 356.226562 284.902344 356.625 284.105469 L 356.691406 284.105469 C 357.023438 283.308594 357.222656 282.511719 357.488281 281.648438 C 357.621094 281.105469 357.730469 280.554688 357.808594 280 C 357.890625 279.441406 357.941406 278.882812 357.96875 278.324219 C 357.996094 277.765625 357.992188 277.203125 357.964844 276.644531 C 357.933594 276.082031 357.878906 275.523438 357.792969 274.96875 C 357.710938 274.414062 357.601562 273.867188 357.460938 273.320312 C 357.324219 272.777344 357.160156 272.242188 356.972656 271.714844 C 356.78125 271.1875 356.566406 270.667969 356.324219 270.160156 C 356.085938 269.652344 355.820312 269.160156 355.53125 268.679688 C 355.242188 268.199219 354.929688 267.734375 354.597656 267.28125 C 354.261719 266.832031 353.90625 266.398438 353.53125 265.984375 C 353.152344 265.566406 352.757812 265.171875 352.339844 264.792969 C 351.925781 264.417969 351.492188 264.0625 351.042969 263.726562 C 350.589844 263.390625 350.125 263.078125 349.644531 262.792969 C 349.164062 262.503906 348.671875 262.238281 348.164062 261.996094 C 347.65625 261.757812 347.140625 261.539062 346.609375 261.351562 C 346.082031 261.160156 345.546875 260.996094 345.003906 260.859375 Z M 345.003906 260.859375 " clip-rule="nonzero"/></clipPath><linearGradient x1="754.529507" gradientTransform="matrix(0.650294, 0.13469, -0.134669, 0.650391, -109.434922, -119.323907)" y1="447.44" x2="815.634081" gradientUnits="userSpaceOnUse" y2="447.44" id="841ca3bf4b"><stop stop-opacity="1" stop-color="rgb(15.299988%, 44.299316%, 87.799072%)" offset="0"/><stop stop-opacity="1" stop-color="rgb(15.299988%, 44.299316%, 87.799072%)" offset="0.0625"/><stop stop-opacity="1" stop-color="rgb(15.390015%, 44.161987%, 87.693787%)" offset="0.09375"/><stop stop-opacity="1" stop-color="rgb(15.58075%, 43.870544%, 87.469482%)" offset="0.109375"/><stop stop-opacity="1" stop-color="rgb(15.782166%, 43.562317%, 87.231445%)" offset="0.125"/><stop stop-opacity="1" stop-color="rgb(15.985107%, 43.254089%, 86.993408%)" offset="0.140625"/><stop stop-opacity="1" stop-color="rgb(16.188049%, 42.944336%, 86.755371%)" offset="0.15625"/><stop stop-opacity="1" stop-color="rgb(16.390991%, 42.636108%, 86.517334%)" offset="0.171875"/><stop stop-opacity="1" stop-color="rgb(16.593933%, 42.327881%, 86.279297%)" offset="0.1875"/><stop stop-opacity="1" stop-color="rgb(16.796875%, 42.019653%, 86.04126%)" offset="0.203125"/><stop stop-opacity="1" stop-color="rgb(16.999817%, 41.711426%, 85.803223%)" offset="0.21875"/><stop stop-opacity="1" stop-color="rgb(17.202759%, 41.401672%, 85.565186%)" offset="0.234375"/><stop stop-opacity="1" stop-color="rgb(17.405701%, 41.093445%, 85.327148%)" offset="0.25"/><stop stop-opacity="1" stop-color="rgb(17.559814%, 40.856934%, 85.145569%)" offset="0.257812"/><stop stop-opacity="1" stop-color="rgb(17.687988%, 40.644836%, 84.996033%)" offset="0.265625"/><stop stop-opacity="1" stop-color="rgb(17.840576%, 40.382385%, 84.825134%)" offset="0.273438"/><stop stop-opacity="1" stop-color="rgb(17.991638%, 40.119934%, 84.65271%)" offset="0.28125"/><stop stop-opacity="1" stop-color="rgb(18.144226%, 39.857483%, 84.480286%)" offset="0.289063"/><stop stop-opacity="1" stop-color="rgb(18.295288%, 39.595032%, 84.307861%)" offset="0.296875"/><stop stop-opacity="1" stop-color="rgb(18.44635%, 39.332581%, 84.135437%)" offset="0.304688"/><stop stop-opacity="1" stop-color="rgb(18.598938%, 39.070129%, 83.963013%)" offset="0.3125"/><stop stop-opacity="1" stop-color="rgb(18.75%, 38.807678%, 83.790588%)" offset="0.320313"/><stop stop-opacity="1" stop-color="rgb(18.902588%, 38.545227%, 83.618164%)" offset="0.328125"/><stop stop-opacity="1" stop-color="rgb(19.05365%, 38.284302%, 83.44574%)" offset="0.335938"/><stop stop-opacity="1" stop-color="rgb(19.206238%, 38.021851%, 83.273315%)" offset="0.34375"/><stop stop-opacity="1" stop-color="rgb(19.3573%, 37.759399%, 83.102417%)" offset="0.351563"/><stop stop-opacity="1" stop-color="rgb(19.508362%, 37.496948%, 82.929993%)" offset="0.359375"/><stop stop-opacity="1" stop-color="rgb(19.66095%, 37.234497%, 82.757568%)" offset="0.367188"/><stop stop-opacity="1" stop-color="rgb(19.812012%, 36.972046%, 82.585144%)" offset="0.375"/><stop stop-opacity="1" stop-color="rgb(19.9646%, 36.709595%, 82.41272%)" offset="0.382812"/><stop stop-opacity="1" stop-color="rgb(20.115662%, 36.447144%, 82.240295%)" offset="0.390625"/><stop stop-opacity="1" stop-color="rgb(20.26825%, 36.184692%, 82.067871%)" offset="0.398438"/><stop stop-opacity="1" stop-color="rgb(20.419312%, 35.923767%, 81.895447%)" offset="0.40625"/><stop stop-opacity="1" stop-color="rgb(20.570374%, 35.661316%, 81.723022%)" offset="0.414063"/><stop stop-opacity="1" stop-color="rgb(20.722961%, 35.398865%, 81.550598%)" offset="0.421875"/><stop stop-opacity="1" stop-color="rgb(20.874023%, 35.136414%, 81.378174%)" offset="0.429688"/><stop stop-opacity="1" stop-color="rgb(21.026611%, 34.873962%, 81.207275%)" offset="0.4375"/><stop stop-opacity="1" stop-color="rgb(21.177673%, 34.611511%, 81.034851%)" offset="0.445313"/><stop stop-opacity="1" stop-color="rgb(21.328735%, 34.34906%, 80.862427%)" offset="0.453125"/><stop stop-opacity="1" stop-color="rgb(21.481323%, 34.086609%, 80.690002%)" offset="0.460938"/><stop stop-opacity="1" stop-color="rgb(21.632385%, 33.825684%, 80.517578%)" offset="0.46875"/><stop stop-opacity="1" stop-color="rgb(21.784973%, 33.563232%, 80.345154%)" offset="0.476563"/><stop stop-opacity="1" stop-color="rgb(21.936035%, 33.300781%, 80.172729%)" offset="0.484375"/><stop stop-opacity="1" stop-color="rgb(22.088623%, 33.03833%, 80.000305%)" offset="0.492188"/><stop stop-opacity="1" stop-color="rgb(22.239685%, 32.775879%, 79.827881%)" offset="0.5"/><stop stop-opacity="1" stop-color="rgb(22.390747%, 32.513428%, 79.655457%)" offset="0.507812"/><stop stop-opacity="1" stop-color="rgb(22.543335%, 32.250977%, 79.483032%)" offset="0.515625"/><stop stop-opacity="1" stop-color="rgb(22.694397%, 31.988525%, 79.312134%)" offset="0.523438"/><stop stop-opacity="1" stop-color="rgb(22.846985%, 31.726074%, 79.139709%)" offset="0.53125"/><stop stop-opacity="1" stop-color="rgb(22.998047%, 31.465149%, 78.967285%)" offset="0.539062"/><stop stop-opacity="1" stop-color="rgb(23.150635%, 31.202698%, 78.794861%)" offset="0.546875"/><stop stop-opacity="1" stop-color="rgb(23.301697%, 30.940247%, 78.622437%)" offset="0.554688"/><stop stop-opacity="1" stop-color="rgb(23.457336%, 30.670166%, 78.443909%)" offset="0.5625"/><stop stop-opacity="1" stop-color="rgb(23.634338%, 30.368042%, 78.234863%)" offset="0.570312"/><stop stop-opacity="1" stop-color="rgb(23.828125%, 30.038452%, 77.999878%)" offset="0.578125"/><stop stop-opacity="1" stop-color="rgb(24.021912%, 29.708862%, 77.764893%)" offset="0.585938"/><stop stop-opacity="1" stop-color="rgb(24.215698%, 29.380798%, 77.529907%)" offset="0.59375"/><stop stop-opacity="1" stop-color="rgb(24.409485%, 29.051208%, 77.296448%)" offset="0.601563"/><stop stop-opacity="1" stop-color="rgb(24.603271%, 28.721619%, 77.061462%)" offset="0.609375"/><stop stop-opacity="1" stop-color="rgb(24.797058%, 28.392029%, 76.826477%)" offset="0.617188"/><stop stop-opacity="1" stop-color="rgb(24.990845%, 28.062439%, 76.591492%)" offset="0.625"/><stop stop-opacity="1" stop-color="rgb(25.184631%, 27.732849%, 76.358032%)" offset="0.632813"/><stop stop-opacity="1" stop-color="rgb(25.378418%, 27.403259%, 76.123047%)" offset="0.640625"/><stop stop-opacity="1" stop-color="rgb(25.572205%, 27.075195%, 75.888062%)" offset="0.648438"/><stop stop-opacity="1" stop-color="rgb(25.765991%, 26.745605%, 75.653076%)" offset="0.65625"/><stop stop-opacity="1" stop-color="rgb(25.959778%, 26.416016%, 75.418091%)" offset="0.664062"/><stop stop-opacity="1" stop-color="rgb(26.153564%, 26.086426%, 75.184631%)" offset="0.671875"/><stop stop-opacity="1" stop-color="rgb(26.347351%, 25.756836%, 74.949646%)" offset="0.679688"/><stop stop-opacity="1" stop-color="rgb(26.541138%, 25.427246%, 74.714661%)" offset="0.6875"/><stop stop-opacity="1" stop-color="rgb(26.734924%, 25.097656%, 74.479675%)" offset="0.695312"/><stop stop-opacity="1" stop-color="rgb(26.928711%, 24.769592%, 74.246216%)" offset="0.703125"/><stop stop-opacity="1" stop-color="rgb(27.122498%, 24.440002%, 74.01123%)" offset="0.710938"/><stop stop-opacity="1" stop-color="rgb(27.316284%, 24.110413%, 73.776245%)" offset="0.71875"/><stop stop-opacity="1" stop-color="rgb(27.508545%, 23.780823%, 73.54126%)" offset="0.726563"/><stop stop-opacity="1" stop-color="rgb(27.702332%, 23.451233%, 73.306274%)" offset="0.734375"/><stop stop-opacity="1" stop-color="rgb(27.896118%, 23.121643%, 73.072815%)" offset="0.742188"/><stop stop-opacity="1" stop-color="rgb(28.089905%, 22.792053%, 72.83783%)" offset="0.75"/><stop stop-opacity="1" stop-color="rgb(28.283691%, 22.463989%, 72.602844%)" offset="0.757813"/><stop stop-opacity="1" stop-color="rgb(28.477478%, 22.134399%, 72.367859%)" offset="0.765625"/><stop stop-opacity="1" stop-color="rgb(28.671265%, 21.80481%, 72.132874%)" offset="0.773438"/><stop stop-opacity="1" stop-color="rgb(28.865051%, 21.47522%, 71.899414%)" offset="0.78125"/><stop stop-opacity="1" stop-color="rgb(29.058838%, 21.14563%, 71.664429%)" offset="0.789063"/><stop stop-opacity="1" stop-color="rgb(29.252625%, 20.81604%, 71.429443%)" offset="0.796875"/><stop stop-opacity="1" stop-color="rgb(29.446411%, 20.48645%, 71.194458%)" offset="0.804688"/><stop stop-opacity="1" stop-color="rgb(29.640198%, 20.158386%, 70.960999%)" offset="0.8125"/><stop stop-opacity="1" stop-color="rgb(29.833984%, 19.828796%, 70.726013%)" offset="0.820313"/><stop stop-opacity="1" stop-color="rgb(30.027771%, 19.499207%, 70.491028%)" offset="0.828125"/><stop stop-opacity="1" stop-color="rgb(30.221558%, 19.169617%, 70.256042%)" offset="0.835938"/><stop stop-opacity="1" stop-color="rgb(30.415344%, 18.840027%, 70.021057%)" offset="0.84375"/><stop stop-opacity="1" stop-color="rgb(30.609131%, 18.510437%, 69.787598%)" offset="0.851563"/><stop stop-opacity="1" stop-color="rgb(30.802917%, 18.180847%, 69.552612%)" offset="0.859375"/><stop stop-opacity="1" stop-color="rgb(30.996704%, 17.851257%, 69.317627%)" offset="0.867188"/><stop stop-opacity="1" stop-color="rgb(31.190491%, 17.523193%, 69.082642%)" offset="0.875"/><stop stop-opacity="1" stop-color="rgb(31.384277%, 17.193604%, 68.849182%)" offset="0.882812"/><stop stop-opacity="1" stop-color="rgb(31.578064%, 16.864014%, 68.614197%)" offset="0.890625"/><stop stop-opacity="1" stop-color="rgb(31.771851%, 16.534424%, 68.379211%)" offset="0.898438"/><stop stop-opacity="1" stop-color="rgb(31.965637%, 16.204834%, 68.144226%)" offset="0.90625"/><stop stop-opacity="1" stop-color="rgb(32.159424%, 15.875244%, 67.909241%)" offset="0.914062"/><stop stop-opacity="1" stop-color="rgb(32.35321%, 15.545654%, 67.675781%)" offset="0.921875"/><stop stop-opacity="1" stop-color="rgb(32.475281%, 15.341187%, 67.527771%)" offset="0.9375"/><stop stop-opacity="1" stop-color="rgb(32.499695%, 15.299988%, 67.498779%)" offset="1"/></linearGradient><clipPath id="29031f7106"><path d="M 15.191406 6.207031 L 309 6.207031 L 309 368.457031 L 15.191406 368.457031 Z M 15.191406 6.207031 " clip-rule="nonzero"/></clipPath><clipPath id="5f454e21ec"><path d="M 295.0625 303.765625 C 293.882812 303.523438 292.6875 303.40625 291.484375 303.414062 C 290.277344 303.421875 289.085938 303.554688 287.90625 303.8125 C 286.730469 304.070312 285.589844 304.445312 284.492188 304.941406 C 283.390625 305.4375 282.355469 306.042969 281.382812 306.753906 C 278.058594 309.121094 274.640625 311.347656 271.128906 313.425781 C 267.617188 315.507812 264.023438 317.4375 260.351562 319.214844 C 256.679688 320.992188 252.9375 322.613281 249.128906 324.078125 C 245.316406 325.542969 241.453125 326.847656 237.535156 327.984375 C 233.617188 329.125 229.65625 330.101562 225.65625 330.90625 C 221.65625 331.714844 217.628906 332.351562 213.574219 332.824219 C 209.519531 333.292969 205.453125 333.589844 201.375 333.71875 C 197.292969 333.847656 193.214844 333.800781 189.140625 333.589844 L 186.816406 333.457031 C 180.113281 333.003906 173.472656 332.097656 166.894531 330.730469 C 87.667969 314.328125 36.796875 236.816406 53.203125 157.644531 C 69.605469 78.472656 147.105469 27.527344 226.265625 43.933594 C 235.859375 45.90625 245.164062 48.816406 254.175781 52.664062 C 263.1875 56.511719 271.726562 61.214844 279.789062 66.78125 L 279.855469 66.78125 C 280.824219 67.6875 281.886719 68.460938 283.042969 69.105469 C 284.597656 69.933594 286.234375 70.53125 287.957031 70.902344 C 288.910156 71.089844 289.871094 71.199219 290.84375 71.226562 C 291.8125 71.257812 292.777344 71.203125 293.742188 71.070312 C 294.703125 70.9375 295.644531 70.726562 296.574219 70.433594 C 297.5 70.144531 298.394531 69.777344 299.257812 69.335938 C 300.125 68.894531 300.945312 68.386719 301.726562 67.808594 C 302.507812 67.226562 303.230469 66.589844 303.90625 65.886719 C 304.578125 65.1875 305.1875 64.4375 305.734375 63.632812 C 306.28125 62.832031 306.757812 61.988281 307.164062 61.105469 C 307.570312 60.222656 307.898438 59.316406 308.152344 58.378906 C 308.40625 57.441406 308.578125 56.488281 308.671875 55.519531 C 308.765625 54.554688 308.78125 53.585938 308.710938 52.617188 C 308.644531 51.648438 308.496094 50.695312 308.269531 49.75 C 308.042969 48.804688 307.734375 47.886719 307.355469 46.992188 C 306.972656 46.101562 306.519531 45.246094 305.996094 44.429688 C 305.46875 43.613281 304.882812 42.84375 304.226562 42.125 C 303.574219 41.40625 302.867188 40.75 302.101562 40.148438 L 302.035156 40.148438 L 300.90625 39.351562 L 300.640625 39.152344 C 290.535156 32.039062 279.808594 26.027344 268.46875 21.117188 C 257.128906 16.207031 245.40625 12.5 233.304688 9.996094 C 135.414062 -10.265625 39.585938 52.636719 19.265625 150.601562 C -1.054688 248.570312 61.902344 344.347656 159.855469 364.671875 C 165.910156 365.933594 172.015625 366.878906 178.171875 367.511719 C 184.324219 368.144531 190.496094 368.460938 196.683594 368.457031 C 202.871094 368.457031 209.039062 368.140625 215.195312 367.503906 C 221.347656 366.871094 227.453125 365.921875 233.507812 364.660156 C 239.566406 363.394531 245.542969 361.828125 251.4375 359.949219 C 257.332031 358.074219 263.117188 355.902344 268.789062 353.429688 C 274.460938 350.960938 279.992188 348.207031 285.382812 345.167969 C 290.769531 342.128906 295.992188 338.824219 301.039062 335.25 L 301.371094 335.050781 L 302.101562 334.453125 L 302.433594 334.253906 C 303.988281 332.984375 305.285156 331.496094 306.335938 329.789062 C 307.382812 328.082031 308.117188 326.246094 308.542969 324.289062 C 308.660156 323.734375 308.746094 323.171875 308.804688 322.605469 C 308.863281 322.042969 308.894531 321.472656 308.898438 320.90625 C 308.902344 320.335938 308.878906 319.769531 308.824219 319.203125 C 308.773438 318.636719 308.695312 318.078125 308.585938 317.519531 C 308.480469 316.960938 308.34375 316.410156 308.183594 315.863281 C 308.023438 315.320312 307.835938 314.78125 307.621094 314.257812 C 307.40625 313.730469 307.167969 313.214844 306.90625 312.710938 C 306.640625 312.207031 306.351562 311.71875 306.039062 311.242188 C 305.730469 310.769531 305.394531 310.308594 305.039062 309.867188 C 304.679688 309.425781 304.304688 309.003906 303.90625 308.597656 C 303.507812 308.191406 303.089844 307.808594 302.652344 307.441406 C 302.214844 307.078125 301.761719 306.734375 301.292969 306.417969 C 300.824219 306.097656 300.339844 305.800781 299.839844 305.527344 C 299.34375 305.253906 298.832031 305.007812 298.308594 304.785156 C 297.785156 304.5625 297.253906 304.367188 296.710938 304.195312 C 296.167969 304.027344 295.621094 303.882812 295.0625 303.765625 Z M 295.0625 303.765625 " clip-rule="nonzero"/></clipPath><linearGradient x1="313.068148" gradientTransform="matrix(0.650294, 0.13469, -0.134669, 0.650391, -109.434922, -119.323907)" y1="4.802887" x2="719.086207" gradientUnits="userSpaceOnUse" y2="708.042392" id="7521c63155"><stop stop-opacity="1" stop-color="rgb(0%, 56.898499%, 83.099365%)" offset="0"/><stop stop-opacity="1" stop-color="rgb(0%, 56.898499%, 83.099365%)" offset="0.125"/><stop stop-opacity="1" stop-color="rgb(0%, 56.925964%, 83.093262%)" offset="0.1875"/><stop stop-opacity="1" stop-color="rgb(0%, 57.090759%, 83.061218%)" offset="0.203125"/><stop stop-opacity="1" stop-color="rgb(0%, 57.362366%, 83.006287%)" offset="0.21875"/><stop stop-opacity="1" stop-color="rgb(0%, 57.633972%, 82.951355%)" offset="0.234375"/><stop stop-opacity="1" stop-color="rgb(0%, 57.905579%, 82.897949%)" offset="0.25"/><stop stop-opacity="1" stop-color="rgb(0%, 58.177185%, 82.843018%)" offset="0.265625"/><stop stop-opacity="1" stop-color="rgb(0%, 58.448792%, 82.789612%)" offset="0.28125"/><stop stop-opacity="1" stop-color="rgb(0%, 58.720398%, 82.73468%)" offset="0.296875"/><stop stop-opacity="1" stop-color="rgb(0%, 58.990479%, 82.681274%)" offset="0.3125"/><stop stop-opacity="1" stop-color="rgb(0%, 59.262085%, 82.626343%)" offset="0.328125"/><stop stop-opacity="1" stop-color="rgb(0%, 59.533691%, 82.571411%)" offset="0.334771"/><stop stop-opacity="1" stop-color="rgb(0%, 59.669495%, 82.545471%)" offset="0.34375"/><stop stop-opacity="1" stop-color="rgb(0%, 59.805298%, 82.518005%)" offset="0.359375"/><stop stop-opacity="1" stop-color="rgb(0%, 60.076904%, 82.463074%)" offset="0.375"/><stop stop-opacity="1" stop-color="rgb(0%, 60.379028%, 82.400513%)" offset="0.390625"/><stop stop-opacity="1" stop-color="rgb(0%, 60.661316%, 82.337952%)" offset="0.398438"/><stop stop-opacity="1" stop-color="rgb(0%, 60.89325%, 82.28302%)" offset="0.40625"/><stop stop-opacity="1" stop-color="rgb(0%, 61.125183%, 82.228088%)" offset="0.414063"/><stop stop-opacity="1" stop-color="rgb(0%, 61.358643%, 82.173157%)" offset="0.421875"/><stop stop-opacity="1" stop-color="rgb(0%, 61.590576%, 82.118225%)" offset="0.429688"/><stop stop-opacity="1" stop-color="rgb(0%, 61.824036%, 82.063293%)" offset="0.4375"/><stop stop-opacity="1" stop-color="rgb(0%, 62.055969%, 82.009888%)" offset="0.445313"/><stop stop-opacity="1" stop-color="rgb(0%, 62.289429%, 81.954956%)" offset="0.453125"/><stop stop-opacity="1" stop-color="rgb(0%, 62.521362%, 81.900024%)" offset="0.460938"/><stop stop-opacity="1" stop-color="rgb(0%, 62.754822%, 81.845093%)" offset="0.46875"/><stop stop-opacity="1" stop-color="rgb(0%, 62.986755%, 81.790161%)" offset="0.476562"/><stop stop-opacity="1" stop-color="rgb(0%, 63.220215%, 81.735229%)" offset="0.484375"/><stop stop-opacity="1" stop-color="rgb(0%, 63.452148%, 81.680298%)" offset="0.492188"/><stop stop-opacity="1" stop-color="rgb(0%, 63.685608%, 81.625366%)" offset="0.5"/><stop stop-opacity="1" stop-color="rgb(0%, 63.917542%, 81.57196%)" offset="0.507813"/><stop stop-opacity="1" stop-color="rgb(0%, 64.151001%, 81.517029%)" offset="0.515625"/><stop stop-opacity="1" stop-color="rgb(0%, 64.382935%, 81.462097%)" offset="0.523438"/><stop stop-opacity="1" stop-color="rgb(0%, 64.614868%, 81.407166%)" offset="0.53125"/><stop stop-opacity="1" stop-color="rgb(0%, 64.848328%, 81.352234%)" offset="0.539063"/><stop stop-opacity="1" stop-color="rgb(0%, 65.080261%, 81.297302%)" offset="0.546875"/><stop stop-opacity="1" stop-color="rgb(0%, 65.313721%, 81.242371%)" offset="0.554688"/><stop stop-opacity="1" stop-color="rgb(0%, 65.545654%, 81.187439%)" offset="0.5625"/><stop stop-opacity="1" stop-color="rgb(0%, 65.779114%, 81.134033%)" offset="0.570312"/><stop stop-opacity="1" stop-color="rgb(0%, 66.011047%, 81.079102%)" offset="0.578125"/><stop stop-opacity="1" stop-color="rgb(0%, 66.244507%, 81.02417%)" offset="0.585938"/><stop stop-opacity="1" stop-color="rgb(0%, 66.47644%, 80.969238%)" offset="0.59375"/><stop stop-opacity="1" stop-color="rgb(0%, 66.7099%, 80.914307%)" offset="0.601562"/><stop stop-opacity="1" stop-color="rgb(0%, 66.941833%, 80.859375%)" offset="0.609375"/><stop stop-opacity="1" stop-color="rgb(0%, 67.175293%, 80.804443%)" offset="0.617188"/><stop stop-opacity="1" stop-color="rgb(0%, 67.407227%, 80.749512%)" offset="0.625"/><stop stop-opacity="1" stop-color="rgb(0%, 67.640686%, 80.696106%)" offset="0.632813"/><stop stop-opacity="1" stop-color="rgb(0%, 67.87262%, 80.641174%)" offset="0.640625"/><stop stop-opacity="1" stop-color="rgb(0%, 68.104553%, 80.586243%)" offset="0.648438"/><stop stop-opacity="1" stop-color="rgb(0%, 68.338013%, 80.531311%)" offset="0.65625"/><stop stop-opacity="1" stop-color="rgb(0%, 68.569946%, 80.476379%)" offset="0.664062"/><stop stop-opacity="1" stop-color="rgb(0%, 68.803406%, 80.421448%)" offset="0.665229"/><stop stop-opacity="1" stop-color="rgb(0%, 68.919373%, 80.393982%)" offset="0.671875"/><stop stop-opacity="1" stop-color="rgb(0%, 69.035339%, 80.366516%)" offset="0.679688"/><stop stop-opacity="1" stop-color="rgb(0%, 69.268799%, 80.311584%)" offset="0.6875"/><stop stop-opacity="1" stop-color="rgb(0%, 69.500732%, 80.258179%)" offset="0.695312"/><stop stop-opacity="1" stop-color="rgb(0%, 69.734192%, 80.203247%)" offset="0.703125"/><stop stop-opacity="1" stop-color="rgb(0%, 69.966125%, 80.148315%)" offset="0.710938"/><stop stop-opacity="1" stop-color="rgb(0%, 70.199585%, 80.093384%)" offset="0.71875"/><stop stop-opacity="1" stop-color="rgb(0%, 70.431519%, 80.038452%)" offset="0.726563"/><stop stop-opacity="1" stop-color="rgb(0%, 70.677185%, 79.975891%)" offset="0.734375"/><stop stop-opacity="1" stop-color="rgb(0%, 70.936584%, 79.905701%)" offset="0.742188"/><stop stop-opacity="1" stop-color="rgb(0%, 71.199036%, 79.830933%)" offset="0.75"/><stop stop-opacity="1" stop-color="rgb(0%, 71.463013%, 79.75769%)" offset="0.757813"/><stop stop-opacity="1" stop-color="rgb(0%, 71.725464%, 79.684448%)" offset="0.765625"/><stop stop-opacity="1" stop-color="rgb(0%, 71.989441%, 79.611206%)" offset="0.773438"/><stop stop-opacity="1" stop-color="rgb(0%, 72.251892%, 79.537964%)" offset="0.78125"/><stop stop-opacity="1" stop-color="rgb(0%, 72.515869%, 79.464722%)" offset="0.789062"/><stop stop-opacity="1" stop-color="rgb(0%, 72.77832%, 79.389954%)" offset="0.796875"/><stop stop-opacity="1" stop-color="rgb(0%, 73.042297%, 79.316711%)" offset="0.804688"/><stop stop-opacity="1" stop-color="rgb(0%, 73.304749%, 79.243469%)" offset="0.8125"/><stop stop-opacity="1" stop-color="rgb(0%, 73.568726%, 79.170227%)" offset="0.820312"/><stop stop-opacity="1" stop-color="rgb(0%, 73.832703%, 79.096985%)" offset="0.828125"/><stop stop-opacity="1" stop-color="rgb(0%, 74.095154%, 79.023743%)" offset="0.835938"/><stop stop-opacity="1" stop-color="rgb(0%, 74.359131%, 78.9505%)" offset="0.84375"/><stop stop-opacity="1" stop-color="rgb(0%, 74.621582%, 78.875732%)" offset="0.851563"/><stop stop-opacity="1" stop-color="rgb(0%, 74.82605%, 78.819275%)" offset="0.859375"/><stop stop-opacity="1" stop-color="rgb(0%, 74.899292%, 78.799438%)" offset="0.875"/><stop stop-opacity="1" stop-color="rgb(0%, 74.899292%, 78.799438%)" offset="1"/></linearGradient><clipPath id="6ab215ffe8"><path d="M 109 75 L 306 75 L 306 295 L 109 295 Z M 109 75 " clip-rule="nonzero"/></clipPath><clipPath id="493be534d6"><path d="M 166.363281 290.679688 C 170.875 291.941406 175.449219 292.910156 180.085938 293.578125 C 184.722656 294.25 189.386719 294.617188 194.070312 294.683594 C 198.753906 294.75 203.425781 294.515625 208.078125 293.980469 C 212.734375 293.445312 217.335938 292.609375 221.878906 291.476562 L 225.730469 290.414062 L 225.796875 290.414062 C 227.816406 289.835938 229.8125 289.199219 231.792969 288.503906 C 233.773438 287.8125 235.734375 287.058594 237.667969 286.253906 C 239.605469 285.445312 241.519531 284.585938 243.40625 283.667969 C 245.292969 282.75 247.152344 281.78125 248.984375 280.757812 C 250.816406 279.734375 252.617188 278.660156 254.386719 277.53125 C 256.15625 276.40625 257.894531 275.226562 259.597656 274 C 261.296875 272.773438 262.964844 271.5 264.59375 270.175781 C 266.222656 268.855469 267.8125 267.484375 269.363281 266.074219 C 270.914062 264.660156 272.421875 263.203125 273.890625 261.699219 C 275.355469 260.199219 276.777344 258.660156 278.15625 257.078125 C 279.535156 255.496094 280.867188 253.875 282.152344 252.214844 C 283.4375 250.554688 284.675781 248.863281 285.863281 247.132812 C 287.050781 245.402344 288.1875 243.640625 289.273438 241.84375 C 290.359375 240.050781 291.394531 238.222656 292.375 236.371094 C 293.359375 234.515625 294.285156 232.632812 295.160156 230.726562 C 296.035156 228.816406 296.851562 226.886719 297.617188 224.933594 C 298.378906 222.976562 299.085938 221 299.734375 219.007812 C 300.382812 217.011719 300.976562 215 301.507812 212.96875 C 302.042969 210.9375 302.519531 208.894531 302.933594 206.839844 C 303.351562 204.78125 303.707031 202.714844 304.003906 200.636719 C 304.304688 198.5625 304.542969 196.476562 304.71875 194.386719 C 304.898438 192.292969 305.015625 190.199219 305.074219 188.101562 C 305.132812 186.003906 305.128906 183.90625 305.066406 181.808594 C 305.003906 179.710938 304.878906 177.617188 304.695312 175.527344 C 304.515625 173.4375 304.269531 171.351562 303.96875 169.277344 C 303.667969 167.199219 303.304688 165.132812 302.882812 163.078125 C 302.460938 161.023438 301.980469 158.980469 301.441406 156.953125 C 300.902344 154.921875 300.308594 152.914062 299.652344 150.917969 C 299 148.925781 298.289062 146.949219 297.519531 144.996094 C 296.753906 143.042969 295.929688 141.117188 295.050781 139.210938 C 294.171875 137.304688 293.242188 135.425781 292.253906 133.574219 C 291.269531 131.71875 290.230469 129.898438 289.140625 128.105469 C 288.046875 126.3125 286.90625 124.550781 285.714844 122.824219 C 284.523438 121.097656 283.28125 119.40625 281.992188 117.75 C 280.703125 116.097656 279.367188 114.476562 277.984375 112.898438 C 276.605469 111.320312 275.175781 109.78125 273.707031 108.285156 C 272.238281 106.789062 270.726562 105.335938 269.171875 103.925781 C 267.617188 102.515625 266.023438 101.148438 264.390625 99.832031 C 262.757812 98.511719 261.089844 97.242188 259.386719 96.019531 C 257.679688 94.796875 255.941406 93.625 254.167969 92.5 C 252.394531 91.378906 250.59375 90.308594 248.757812 89.289062 C 246.925781 88.269531 245.0625 87.304688 243.171875 86.390625 C 241.28125 85.476562 239.367188 84.621094 237.429688 83.820312 C 235.492188 83.015625 233.53125 82.269531 231.550781 81.582031 C 229.566406 80.890625 227.566406 80.257812 225.550781 79.683594 C 223.53125 79.109375 221.5 78.59375 219.449219 78.136719 C 217.402344 77.675781 215.34375 77.277344 213.273438 76.9375 C 211.203125 76.597656 209.125 76.320312 207.039062 76.097656 C 204.949219 75.878906 202.859375 75.71875 200.765625 75.617188 C 198.667969 75.519531 196.570312 75.480469 194.472656 75.5 C 192.375 75.519531 190.277344 75.601562 188.183594 75.742188 C 186.09375 75.882812 184.003906 76.082031 181.921875 76.34375 C 179.839844 76.605469 177.765625 76.925781 175.703125 77.304688 C 173.640625 77.683594 171.589844 78.125 169.550781 78.621094 C 167.511719 79.117188 165.488281 79.675781 163.484375 80.289062 C 161.476562 80.902344 159.488281 81.574219 157.523438 82.300781 C 155.554688 83.03125 153.609375 83.8125 151.6875 84.652344 C 149.761719 85.492188 147.867188 86.386719 145.996094 87.335938 C 144.121094 88.285156 142.28125 89.289062 140.464844 90.34375 C 138.652344 91.398438 136.871094 92.503906 135.121094 93.660156 C 133.367188 94.816406 131.652344 96.023438 129.972656 97.28125 C 128.292969 98.535156 126.648438 99.839844 125.039062 101.1875 C 123.433594 102.539062 121.867188 103.933594 120.34375 105.375 C 118.816406 106.8125 117.332031 108.296875 115.890625 109.820312 L 113.035156 113.011719 C 112.65625 113.488281 112.324219 114 112.039062 114.539062 C 111.488281 115.496094 111.027344 116.5 110.65625 117.539062 C 110.285156 118.582031 110.007812 119.648438 109.828125 120.738281 C 109.644531 121.832031 109.5625 122.929688 109.578125 124.035156 C 109.589844 125.140625 109.703125 126.238281 109.914062 127.324219 C 110.125 128.410156 110.429688 129.46875 110.828125 130.5 C 111.226562 131.53125 111.714844 132.519531 112.289062 133.464844 C 112.867188 134.410156 113.519531 135.296875 114.253906 136.125 C 114.988281 136.953125 115.789062 137.707031 116.65625 138.394531 C 117.523438 139.078125 118.449219 139.679688 119.421875 140.203125 C 120.398438 140.722656 121.414062 141.152344 122.46875 141.492188 C 123.519531 141.832031 124.59375 142.074219 125.691406 142.222656 C 126.785156 142.367188 127.886719 142.417969 128.992188 142.371094 C 130.097656 142.320312 131.1875 142.175781 132.269531 141.929688 C 133.347656 141.6875 134.394531 141.347656 135.414062 140.917969 C 136.433594 140.488281 137.40625 139.96875 138.332031 139.363281 C 139.257812 138.761719 140.125 138.078125 140.929688 137.320312 L 142.65625 135.394531 C 144.140625 133.808594 145.695312 132.296875 147.316406 130.851562 C 148.9375 129.40625 150.621094 128.039062 152.367188 126.746094 C 154.109375 125.453125 155.910156 124.238281 157.761719 123.109375 C 159.617188 121.976562 161.515625 120.929688 163.464844 119.96875 C 165.410156 119.007812 167.398438 118.136719 169.421875 117.351562 C 171.449219 116.570312 173.503906 115.878906 175.59375 115.28125 C 177.679688 114.683594 179.789062 114.179688 181.921875 113.769531 C 184.054688 113.363281 186.203125 113.050781 188.363281 112.832031 C 190.523438 112.617188 192.691406 112.5 194.863281 112.476562 C 197.03125 112.453125 199.199219 112.53125 201.367188 112.703125 C 203.53125 112.875 205.683594 113.144531 207.824219 113.511719 C 209.964844 113.878906 212.082031 114.339844 214.183594 114.894531 C 216.28125 115.453125 218.351562 116.101562 220.390625 116.84375 C 222.433594 117.585938 224.4375 118.417969 226.402344 119.339844 C 228.367188 120.261719 230.289062 121.269531 232.164062 122.363281 C 234.039062 123.460938 235.863281 124.636719 237.632812 125.894531 C 239.402344 127.152344 241.113281 128.488281 242.765625 129.898438 C 244.414062 131.308594 246 132.792969 247.515625 134.347656 C 249.03125 135.902344 250.476562 137.519531 251.847656 139.203125 C 253.222656 140.886719 254.515625 142.628906 255.730469 144.425781 C 256.945312 146.226562 258.078125 148.078125 259.128906 149.980469 C 260.179688 151.878906 261.140625 153.824219 262.015625 155.8125 C 262.890625 157.800781 263.675781 159.824219 264.367188 161.882812 C 265.0625 163.9375 265.664062 166.023438 266.167969 168.136719 C 266.675781 170.246094 267.085938 172.378906 267.402344 174.527344 C 267.71875 176.675781 267.933594 178.835938 268.058594 181.003906 C 268.179688 183.171875 268.203125 185.339844 268.128906 187.511719 C 268.058594 189.683594 267.886719 191.84375 267.621094 194 C 267.351562 196.15625 266.988281 198.296875 266.53125 200.417969 C 266.070312 202.539062 265.519531 204.636719 264.871094 206.710938 C 264.222656 208.785156 263.484375 210.824219 262.652344 212.832031 C 261.824219 214.839844 260.90625 216.804688 259.898438 218.726562 C 258.890625 220.652344 257.800781 222.527344 256.625 224.355469 C 255.449219 226.179688 254.195312 227.949219 252.859375 229.664062 C 251.527344 231.378906 250.121094 233.027344 248.636719 234.617188 C 247.15625 236.203125 245.605469 237.722656 243.988281 239.167969 C 242.367188 240.617188 240.6875 241.992188 238.945312 243.289062 C 237.207031 244.585938 235.410156 245.800781 233.558594 246.9375 C 231.707031 248.074219 229.808594 249.125 227.867188 250.089844 C 225.921875 251.058594 223.9375 251.933594 221.914062 252.722656 C 219.890625 253.507812 217.835938 254.203125 215.746094 254.808594 C 213.660156 255.410156 211.554688 255.921875 209.421875 256.335938 C 207.289062 256.746094 205.144531 257.066406 202.984375 257.285156 C 200.824219 257.507812 198.65625 257.632812 196.484375 257.660156 C 194.316406 257.6875 192.144531 257.617188 189.980469 257.449219 C 187.816406 257.28125 185.664062 257.015625 183.523438 256.65625 C 181.378906 256.292969 179.257812 255.839844 177.160156 255.285156 C 175.058594 254.734375 172.988281 254.089844 170.945312 253.355469 C 161.882812 250.113281 153.800781 245.242188 146.707031 238.742188 C 146.640625 238.742188 146.640625 238.742188 146.640625 238.675781 L 145.113281 237.28125 C 144.28125 236.5625 143.394531 235.921875 142.457031 235.355469 C 141.507812 234.796875 140.519531 234.328125 139.488281 233.949219 C 138.457031 233.566406 137.402344 233.28125 136.320312 233.085938 C 135.238281 232.894531 134.148438 232.796875 133.050781 232.800781 C 131.949219 232.800781 130.859375 232.898438 129.78125 233.09375 C 128.699219 233.289062 127.644531 233.578125 126.613281 233.960938 C 125.582031 234.34375 124.59375 234.8125 123.648438 235.371094 C 122.703125 235.929688 121.8125 236.570312 120.980469 237.285156 C 120.148438 238.003906 119.382812 238.789062 118.691406 239.640625 C 118 240.492188 117.386719 241.398438 116.855469 242.359375 C 116.320312 243.324219 115.878906 244.324219 115.527344 245.363281 C 115.171875 246.40625 114.914062 247.46875 114.75 248.554688 C 114.582031 249.640625 114.515625 250.734375 114.546875 251.832031 C 114.574219 252.929688 114.703125 254.019531 114.925781 255.09375 C 115.148438 256.167969 115.464844 257.21875 115.875 258.238281 C 116.285156 259.257812 116.78125 260.230469 117.363281 261.164062 C 117.945312 262.09375 118.605469 262.96875 119.34375 263.78125 C 119.972656 264.550781 120.679688 265.238281 121.46875 265.839844 L 121.535156 265.839844 C 127.914062 271.703125 134.890625 276.734375 142.46875 280.933594 C 150.046875 285.132812 158.011719 288.378906 166.363281 290.679688 Z M 166.363281 290.679688 " clip-rule="nonzero"/></clipPath><linearGradient x1="-589.345317" gradientTransform="matrix(-0.309724, 0.587531, -0.587443, -0.30977, 301.572357, 690.258893)" y1="264.921586" x2="-606.946234" gradientUnits="userSpaceOnUse" y2="696.19784" id="97f3f691e3"><stop stop-opacity="1" stop-color="rgb(0%, 71.398926%, 95.298767%)" offset="0"/><stop stop-opacity="1" stop-color="rgb(0%, 71.398926%, 95.298767%)" offset="0.040564"/><stop stop-opacity="1" stop-color="rgb(0%, 71.398926%, 95.298767%)" offset="0.125"/><stop stop-opacity="1" stop-color="rgb(0%, 71.395874%, 95.26825%)" offset="0.15625"/><stop stop-opacity="1" stop-color="rgb(0%, 71.379089%, 95.129395%)" offset="0.171875"/><stop stop-opacity="1" stop-color="rgb(0%, 71.354675%, 94.911194%)" offset="0.1875"/><stop stop-opacity="1" stop-color="rgb(0%, 71.330261%, 94.691467%)" offset="0.203125"/><stop stop-opacity="1" stop-color="rgb(0%, 71.304321%, 94.473267%)" offset="0.21875"/><stop stop-opacity="1" stop-color="rgb(0%, 71.279907%, 94.255066%)" offset="0.234375"/><stop stop-opacity="1" stop-color="rgb(0%, 71.253967%, 94.036865%)" offset="0.25"/><stop stop-opacity="1" stop-color="rgb(0%, 71.229553%, 93.817139%)" offset="0.265625"/><stop stop-opacity="1" stop-color="rgb(0%, 71.205139%, 93.598938%)" offset="0.28125"/><stop stop-opacity="1" stop-color="rgb(0%, 71.179199%, 93.380737%)" offset="0.296875"/><stop stop-opacity="1" stop-color="rgb(0%, 71.154785%, 93.161011%)" offset="0.3125"/><stop stop-opacity="1" stop-color="rgb(0%, 71.130371%, 92.94281%)" offset="0.328125"/><stop stop-opacity="1" stop-color="rgb(0%, 71.104431%, 92.724609%)" offset="0.34375"/><stop stop-opacity="1" stop-color="rgb(0%, 71.080017%, 92.504883%)" offset="0.359375"/><stop stop-opacity="1" stop-color="rgb(0%, 71.054077%, 92.286682%)" offset="0.375"/><stop stop-opacity="1" stop-color="rgb(0%, 71.029663%, 92.068481%)" offset="0.390625"/><stop stop-opacity="1" stop-color="rgb(0%, 70.999146%, 91.827393%)" offset="0.40625"/><stop stop-opacity="1" stop-color="rgb(0%, 70.951843%, 91.499329%)" offset="0.421875"/><stop stop-opacity="1" stop-color="rgb(0%, 70.890808%, 91.110229%)" offset="0.4375"/><stop stop-opacity="1" stop-color="rgb(0%, 70.829773%, 90.72113%)" offset="0.453125"/><stop stop-opacity="1" stop-color="rgb(0%, 70.768738%, 90.332031%)" offset="0.46875"/><stop stop-opacity="1" stop-color="rgb(0%, 70.707703%, 89.942932%)" offset="0.484375"/><stop stop-opacity="1" stop-color="rgb(0%, 70.646667%, 89.552307%)" offset="0.5"/><stop stop-opacity="1" stop-color="rgb(0%, 70.585632%, 89.163208%)" offset="0.515625"/><stop stop-opacity="1" stop-color="rgb(0%, 70.524597%, 88.774109%)" offset="0.53125"/><stop stop-opacity="1" stop-color="rgb(0%, 70.463562%, 88.38501%)" offset="0.546875"/><stop stop-opacity="1" stop-color="rgb(0%, 70.402527%, 87.995911%)" offset="0.5625"/><stop stop-opacity="1" stop-color="rgb(0%, 70.341492%, 87.605286%)" offset="0.578125"/><stop stop-opacity="1" stop-color="rgb(0%, 70.280457%, 87.216187%)" offset="0.59375"/><stop stop-opacity="1" stop-color="rgb(0%, 70.219421%, 86.827087%)" offset="0.609375"/><stop stop-opacity="1" stop-color="rgb(0%, 70.158386%, 86.437988%)" offset="0.625"/><stop stop-opacity="1" stop-color="rgb(0%, 70.097351%, 86.048889%)" offset="0.640625"/><stop stop-opacity="1" stop-color="rgb(0%, 70.036316%, 85.658264%)" offset="0.65625"/><stop stop-opacity="1" stop-color="rgb(0%, 69.975281%, 85.269165%)" offset="0.671875"/><stop stop-opacity="1" stop-color="rgb(0%, 69.914246%, 84.880066%)" offset="0.6875"/><stop stop-opacity="1" stop-color="rgb(0%, 69.85321%, 84.490967%)" offset="0.703125"/><stop stop-opacity="1" stop-color="rgb(0%, 69.792175%, 84.100342%)" offset="0.71875"/><stop stop-opacity="1" stop-color="rgb(0%, 69.73114%, 83.711243%)" offset="0.734375"/><stop stop-opacity="1" stop-color="rgb(0%, 69.670105%, 83.322144%)" offset="0.75"/><stop stop-opacity="1" stop-color="rgb(0%, 69.60907%, 82.933044%)" offset="0.765625"/><stop stop-opacity="1" stop-color="rgb(0%, 69.548035%, 82.543945%)" offset="0.78125"/><stop stop-opacity="1" stop-color="rgb(0%, 69.487%, 82.15332%)" offset="0.796875"/><stop stop-opacity="1" stop-color="rgb(0%, 69.441223%, 81.861877%)" offset="0.804688"/><stop stop-opacity="1" stop-color="rgb(0%, 69.40918%, 81.665039%)" offset="0.8125"/><stop stop-opacity="1" stop-color="rgb(0%, 69.378662%, 81.454468%)" offset="0.820312"/><stop stop-opacity="1" stop-color="rgb(0%, 69.346619%, 81.233215%)" offset="0.828125"/><stop stop-opacity="1" stop-color="rgb(0%, 69.314575%, 81.010437%)" offset="0.835937"/><stop stop-opacity="1" stop-color="rgb(0%, 69.282532%, 80.789185%)" offset="0.84375"/><stop stop-opacity="1" stop-color="rgb(0%, 69.250488%, 80.566406%)" offset="0.851563"/><stop stop-opacity="1" stop-color="rgb(0%, 69.219971%, 80.345154%)" offset="0.859375"/><stop stop-opacity="1" stop-color="rgb(0%, 69.187927%, 80.122375%)" offset="0.867188"/><stop stop-opacity="1" stop-color="rgb(0%, 69.155884%, 79.901123%)" offset="0.875"/><stop stop-opacity="1" stop-color="rgb(0%, 69.12384%, 79.678345%)" offset="0.882812"/><stop stop-opacity="1" stop-color="rgb(0%, 69.093323%, 79.457092%)" offset="0.890625"/><stop stop-opacity="1" stop-color="rgb(0%, 69.061279%, 79.234314%)" offset="0.898438"/><stop stop-opacity="1" stop-color="rgb(0%, 69.029236%, 79.013062%)" offset="0.90625"/><stop stop-opacity="1" stop-color="rgb(0%, 69.006348%, 78.849792%)" offset="0.9375"/><stop stop-opacity="1" stop-color="rgb(0%, 68.998718%, 78.799438%)" offset="0.959436"/><stop stop-opacity="1" stop-color="rgb(0%, 68.998718%, 78.799438%)" offset="1"/></linearGradient><clipPath id="942b17d205"><path d="M 86 152 L 229 152 L 229 218 L 86 218 Z M 86 152 " clip-rule="nonzero"/></clipPath><clipPath id="59f25a0dcb"><path d="M 228.324219 180.625 C 228.203125 179.722656 228.042969 178.832031 227.847656 177.945312 C 227.648438 177.054688 227.417969 176.179688 227.144531 175.3125 C 226.875 174.445312 226.570312 173.589844 226.226562 172.75 C 225.882812 171.90625 225.507812 171.082031 225.09375 170.269531 C 224.683594 169.460938 224.238281 168.671875 223.761719 167.898438 C 223.28125 167.125 222.769531 166.375 222.230469 165.644531 C 221.6875 164.917969 221.117188 164.210938 220.515625 163.53125 C 219.914062 162.847656 219.285156 162.195312 218.628906 161.566406 C 217.972656 160.9375 217.289062 160.339844 216.582031 159.769531 C 215.875 159.199219 215.148438 158.65625 214.394531 158.148438 C 213.640625 157.640625 212.871094 157.164062 212.078125 156.71875 C 211.285156 156.273438 210.476562 155.863281 209.648438 155.488281 C 208.820312 155.113281 207.980469 154.773438 207.125 154.46875 C 206.269531 154.164062 205.402344 153.894531 204.523438 153.664062 C 203.644531 153.429688 202.757812 153.234375 201.863281 153.078125 C 200.96875 152.921875 200.070312 152.800781 199.164062 152.722656 C 198.257812 152.640625 197.351562 152.597656 196.445312 152.589844 C 195.535156 152.585938 194.628906 152.621094 193.722656 152.691406 C 192.816406 152.761719 191.917969 152.871094 191.019531 153.019531 C 190.125 153.167969 189.234375 153.351562 188.355469 153.574219 C 187.472656 153.796875 186.605469 154.054688 185.746094 154.351562 C 184.886719 154.648438 184.039062 154.980469 183.210938 155.347656 C 182.378906 155.710938 181.566406 156.113281 180.765625 156.550781 C 179.96875 156.984375 179.191406 157.453125 178.433594 157.953125 C 177.675781 158.457031 176.941406 158.988281 176.226562 159.550781 C 175.515625 160.113281 174.828125 160.707031 174.164062 161.328125 C 173.5 161.949219 172.867188 162.59375 172.257812 163.269531 C 171.648438 163.945312 171.070312 164.644531 170.519531 165.367188 C 169.96875 166.089844 169.453125 166.835938 168.964844 167.601562 C 168.476562 168.371094 168.023438 169.15625 167.605469 169.960938 C 167.183594 170.765625 166.796875 171.589844 166.445312 172.425781 C 166.09375 173.265625 165.777344 174.113281 165.5 174.980469 C 159.125 178.566406 150.359375 180.757812 140.597656 180.757812 C 132.226562 180.757812 124.523438 179.097656 118.480469 176.375 C 116.945312 173.734375 114.84375 171.675781 112.171875 170.195312 C 110.859375 169.425781 109.464844 168.851562 107.988281 168.46875 C 107.113281 168.273438 106.226562 168.140625 105.332031 168.070312 C 104.113281 167.953125 102.894531 167.964844 101.679688 168.109375 C 100.460938 168.253906 99.273438 168.527344 98.117188 168.929688 C 96.957031 169.328125 95.859375 169.851562 94.8125 170.488281 C 93.765625 171.128906 92.800781 171.871094 91.917969 172.722656 L 91.851562 172.722656 L 90.589844 174.117188 C 89.914062 174.867188 89.339844 175.683594 88.863281 176.574219 C 88.585938 177.0625 88.332031 177.5625 88.105469 178.074219 C 87.875 178.589844 87.671875 179.113281 87.496094 179.644531 C 87.320312 180.179688 87.167969 180.71875 87.042969 181.265625 C 86.921875 181.8125 86.824219 182.367188 86.753906 182.925781 C 86.683594 183.480469 86.640625 184.042969 86.628906 184.601562 C 86.613281 185.164062 86.625 185.726562 86.667969 186.285156 C 86.707031 186.84375 86.777344 187.402344 86.871094 187.957031 C 86.964844 188.507812 87.089844 189.058594 87.238281 189.597656 C 87.386719 190.140625 87.5625 190.671875 87.765625 191.199219 C 87.964844 191.722656 88.191406 192.234375 88.445312 192.738281 C 88.695312 193.238281 88.972656 193.726562 89.273438 194.203125 C 89.574219 194.675781 89.894531 195.136719 90.242188 195.578125 C 90.585938 196.023438 90.953125 196.445312 91.339844 196.855469 C 91.726562 197.261719 92.132812 197.648438 92.558594 198.015625 C 92.980469 198.382812 93.425781 198.726562 93.882812 199.050781 C 94.34375 199.375 94.816406 199.675781 95.304688 199.953125 C 96.824219 200.816406 98.441406 201.429688 100.152344 201.792969 C 101.867188 202.15625 103.589844 202.25 105.332031 202.078125 C 106.230469 201.988281 107.113281 201.832031 107.988281 201.613281 C 110.753906 200.917969 113.1875 199.613281 115.292969 197.695312 L 117.21875 195.636719 C 117.21875 195.589844 117.242188 195.570312 117.285156 195.570312 L 118.480469 193.777344 C 124.523438 190.984375 132.226562 189.324219 140.597656 189.324219 C 150.359375 189.324219 159.125 191.519531 165.5 195.171875 C 165.820312 196.113281 166.179688 197.039062 166.585938 197.945312 C 166.992188 198.855469 167.4375 199.742188 167.921875 200.609375 C 168.410156 201.476562 168.933594 202.320312 169.5 203.140625 C 170.0625 203.960938 170.664062 204.75 171.300781 205.515625 C 171.9375 206.277344 172.609375 207.011719 173.3125 207.714844 C 174.019531 208.414062 174.753906 209.082031 175.519531 209.71875 C 176.285156 210.351562 177.078125 210.949219 177.902344 211.511719 C 178.722656 212.074219 179.566406 212.59375 180.4375 213.078125 C 181.304688 213.5625 182.195312 214.003906 183.105469 214.40625 C 184.015625 214.808594 184.941406 215.167969 185.882812 215.484375 C 186.828125 215.800781 187.78125 216.070312 188.75 216.300781 C 189.71875 216.527344 190.695312 216.710938 191.679688 216.847656 C 192.664062 216.988281 193.65625 217.082031 194.648438 217.128906 C 195.640625 217.175781 196.636719 217.175781 197.628906 217.132812 C 198.621094 217.089844 199.613281 217 200.597656 216.863281 C 201.582031 216.726562 202.558594 216.546875 203.527344 216.320312 C 204.496094 216.097656 205.453125 215.828125 206.398438 215.515625 C 207.339844 215.199219 208.269531 214.84375 209.179688 214.445312 C 210.089844 214.046875 210.980469 213.605469 211.851562 213.125 C 212.722656 212.644531 213.570312 212.125 214.390625 211.566406 C 215.214844 211.007812 216.011719 210.414062 216.777344 209.78125 C 217.546875 209.148438 218.285156 208.484375 218.992188 207.78125 C 219.695312 207.082031 220.371094 206.351562 221.007812 205.589844 C 221.648438 204.828125 222.253906 204.039062 222.820312 203.222656 C 223.386719 202.402344 223.914062 201.5625 224.402344 200.695312 C 224.890625 199.828125 225.339844 198.941406 225.746094 198.035156 C 226.15625 197.128906 226.519531 196.203125 226.84375 195.261719 C 227.164062 194.324219 227.445312 193.367188 227.679688 192.402344 C 227.914062 191.433594 228.105469 190.460938 228.25 189.476562 C 228.394531 188.492188 228.492188 187.503906 228.546875 186.511719 C 228.601562 185.515625 228.609375 184.523438 228.570312 183.527344 C 228.535156 182.535156 228.449219 181.542969 228.324219 180.558594 Z M 228.324219 180.625 " clip-rule="nonzero"/></clipPath><linearGradient x1="372.096922" gradientTransform="matrix(0.650294, 0.13469, -0.134669, 0.650391, -109.434922, -119.323907)" y1="481.63" x2="601.194005" gradientUnits="userSpaceOnUse" y2="481.63" id="df6456b840"><stop stop-opacity="1" stop-color="rgb(15.299988%, 44.299316%, 87.799072%)" offset="0"/><stop stop-opacity="1" stop-color="rgb(15.299988%, 44.299316%, 87.799072%)" offset="0.125"/><stop stop-opacity="1" stop-color="rgb(15.344238%, 44.230652%, 87.745667%)" offset="0.15625"/><stop stop-opacity="1" stop-color="rgb(15.481567%, 44.021606%, 87.585449%)" offset="0.171875"/><stop stop-opacity="1" stop-color="rgb(15.664673%, 43.742371%, 87.3703%)" offset="0.1875"/><stop stop-opacity="1" stop-color="rgb(15.847778%, 43.463135%, 87.155151%)" offset="0.203125"/><stop stop-opacity="1" stop-color="rgb(16.030884%, 43.185425%, 86.940002%)" offset="0.21875"/><stop stop-opacity="1" stop-color="rgb(16.213989%, 42.906189%, 86.724854%)" offset="0.234375"/><stop stop-opacity="1" stop-color="rgb(16.397095%, 42.626953%, 86.508179%)" offset="0.25"/><stop stop-opacity="1" stop-color="rgb(16.581726%, 42.347717%, 86.29303%)" offset="0.265625"/><stop stop-opacity="1" stop-color="rgb(16.764832%, 42.068481%, 86.077881%)" offset="0.28125"/><stop stop-opacity="1" stop-color="rgb(16.947937%, 41.790771%, 85.862732%)" offset="0.296875"/><stop stop-opacity="1" stop-color="rgb(17.131042%, 41.511536%, 85.647583%)" offset="0.3125"/><stop stop-opacity="1" stop-color="rgb(17.314148%, 41.2323%, 85.432434%)" offset="0.328125"/><stop stop-opacity="1" stop-color="rgb(17.497253%, 40.953064%, 85.217285%)" offset="0.34375"/><stop stop-opacity="1" stop-color="rgb(17.654419%, 40.701294%, 85.035706%)" offset="0.351562"/><stop stop-opacity="1" stop-color="rgb(17.790222%, 40.46936%, 84.883118%)" offset="0.359375"/><stop stop-opacity="1" stop-color="rgb(17.927551%, 40.231323%, 84.725952%)" offset="0.367188"/><stop stop-opacity="1" stop-color="rgb(18.06488%, 39.994812%, 84.570312%)" offset="0.375"/><stop stop-opacity="1" stop-color="rgb(18.202209%, 39.756775%, 84.414673%)" offset="0.382812"/><stop stop-opacity="1" stop-color="rgb(18.338013%, 39.520264%, 84.259033%)" offset="0.390625"/><stop stop-opacity="1" stop-color="rgb(18.475342%, 39.283752%, 84.103394%)" offset="0.398438"/><stop stop-opacity="1" stop-color="rgb(18.612671%, 39.045715%, 83.947754%)" offset="0.40625"/><stop stop-opacity="1" stop-color="rgb(18.75%, 38.809204%, 83.792114%)" offset="0.414062"/><stop stop-opacity="1" stop-color="rgb(18.887329%, 38.571167%, 83.636475%)" offset="0.421875"/><stop stop-opacity="1" stop-color="rgb(19.024658%, 38.334656%, 83.480835%)" offset="0.429688"/><stop stop-opacity="1" stop-color="rgb(19.161987%, 38.098145%, 83.325195%)" offset="0.4375"/><stop stop-opacity="1" stop-color="rgb(19.299316%, 37.860107%, 83.169556%)" offset="0.445312"/><stop stop-opacity="1" stop-color="rgb(19.436646%, 37.623596%, 83.013916%)" offset="0.453125"/><stop stop-opacity="1" stop-color="rgb(19.572449%, 37.385559%, 82.858276%)" offset="0.460938"/><stop stop-opacity="1" stop-color="rgb(19.709778%, 37.149048%, 82.702637%)" offset="0.46875"/><stop stop-opacity="1" stop-color="rgb(19.847107%, 36.912537%, 82.545471%)" offset="0.476562"/><stop stop-opacity="1" stop-color="rgb(19.984436%, 36.6745%, 82.389832%)" offset="0.484375"/><stop stop-opacity="1" stop-color="rgb(20.121765%, 36.437988%, 82.234192%)" offset="0.492188"/><stop stop-opacity="1" stop-color="rgb(20.259094%, 36.199951%, 82.078552%)" offset="0.5"/><stop stop-opacity="1" stop-color="rgb(20.396423%, 35.96344%, 81.922913%)" offset="0.507812"/><stop stop-opacity="1" stop-color="rgb(20.533752%, 35.726929%, 81.767273%)" offset="0.515625"/><stop stop-opacity="1" stop-color="rgb(20.669556%, 35.488892%, 81.611633%)" offset="0.523438"/><stop stop-opacity="1" stop-color="rgb(20.806885%, 35.25238%, 81.455994%)" offset="0.53125"/><stop stop-opacity="1" stop-color="rgb(20.944214%, 35.015869%, 81.300354%)" offset="0.539062"/><stop stop-opacity="1" stop-color="rgb(21.081543%, 34.777832%, 81.144714%)" offset="0.546875"/><stop stop-opacity="1" stop-color="rgb(21.218872%, 34.541321%, 80.989075%)" offset="0.554688"/><stop stop-opacity="1" stop-color="rgb(21.356201%, 34.303284%, 80.833435%)" offset="0.5625"/><stop stop-opacity="1" stop-color="rgb(21.49353%, 34.066772%, 80.677795%)" offset="0.570312"/><stop stop-opacity="1" stop-color="rgb(21.630859%, 33.830261%, 80.52063%)" offset="0.578125"/><stop stop-opacity="1" stop-color="rgb(21.768188%, 33.592224%, 80.36499%)" offset="0.585938"/><stop stop-opacity="1" stop-color="rgb(21.903992%, 33.355713%, 80.209351%)" offset="0.59375"/><stop stop-opacity="1" stop-color="rgb(22.041321%, 33.117676%, 80.053711%)" offset="0.601562"/><stop stop-opacity="1" stop-color="rgb(22.17865%, 32.881165%, 79.898071%)" offset="0.609375"/><stop stop-opacity="1" stop-color="rgb(22.315979%, 32.644653%, 79.742432%)" offset="0.617188"/><stop stop-opacity="1" stop-color="rgb(22.453308%, 32.406616%, 79.586792%)" offset="0.625"/><stop stop-opacity="1" stop-color="rgb(22.590637%, 32.170105%, 79.431152%)" offset="0.632812"/><stop stop-opacity="1" stop-color="rgb(22.727966%, 31.932068%, 79.275513%)" offset="0.640625"/><stop stop-opacity="1" stop-color="rgb(22.865295%, 31.695557%, 79.119873%)" offset="0.648438"/><stop stop-opacity="1" stop-color="rgb(23.002625%, 31.459045%, 78.964233%)" offset="0.65625"/><stop stop-opacity="1" stop-color="rgb(23.138428%, 31.221008%, 78.808594%)" offset="0.664062"/><stop stop-opacity="1" stop-color="rgb(23.275757%, 30.984497%, 78.652954%)" offset="0.671875"/><stop stop-opacity="1" stop-color="rgb(23.413086%, 30.74646%, 78.497314%)" offset="0.679688"/><stop stop-opacity="1" stop-color="rgb(23.5672%, 30.484009%, 78.315735%)" offset="0.6875"/><stop stop-opacity="1" stop-color="rgb(23.739624%, 30.189514%, 78.106689%)" offset="0.695312"/><stop stop-opacity="1" stop-color="rgb(23.9151%, 29.891968%, 77.894592%)" offset="0.703125"/><stop stop-opacity="1" stop-color="rgb(24.08905%, 29.594421%, 77.682495%)" offset="0.710938"/><stop stop-opacity="1" stop-color="rgb(24.264526%, 29.295349%, 77.470398%)" offset="0.71875"/><stop stop-opacity="1" stop-color="rgb(24.440002%, 28.997803%, 77.258301%)" offset="0.726562"/><stop stop-opacity="1" stop-color="rgb(24.615479%, 28.700256%, 77.046204%)" offset="0.734375"/><stop stop-opacity="1" stop-color="rgb(24.790955%, 28.40271%, 76.834106%)" offset="0.742188"/><stop stop-opacity="1" stop-color="rgb(24.964905%, 28.105164%, 76.622009%)" offset="0.75"/><stop stop-opacity="1" stop-color="rgb(25.140381%, 27.807617%, 76.409912%)" offset="0.757812"/><stop stop-opacity="1" stop-color="rgb(25.315857%, 27.510071%, 76.197815%)" offset="0.765625"/><stop stop-opacity="1" stop-color="rgb(25.491333%, 27.210999%, 75.985718%)" offset="0.773437"/><stop stop-opacity="1" stop-color="rgb(25.666809%, 26.913452%, 75.773621%)" offset="0.78125"/><stop stop-opacity="1" stop-color="rgb(25.840759%, 26.615906%, 75.561523%)" offset="0.789062"/><stop stop-opacity="1" stop-color="rgb(26.016235%, 26.318359%, 75.349426%)" offset="0.796875"/><stop stop-opacity="1" stop-color="rgb(26.191711%, 26.020813%, 75.137329%)" offset="0.804687"/><stop stop-opacity="1" stop-color="rgb(26.367188%, 25.723267%, 74.925232%)" offset="0.8125"/><stop stop-opacity="1" stop-color="rgb(26.542664%, 25.424194%, 74.713135%)" offset="0.820312"/><stop stop-opacity="1" stop-color="rgb(26.716614%, 25.126648%, 74.501038%)" offset="0.828125"/><stop stop-opacity="1" stop-color="rgb(26.89209%, 24.829102%, 74.28894%)" offset="0.835937"/><stop stop-opacity="1" stop-color="rgb(27.067566%, 24.531555%, 74.076843%)" offset="0.84375"/><stop stop-opacity="1" stop-color="rgb(27.243042%, 24.234009%, 73.864746%)" offset="0.851562"/><stop stop-opacity="1" stop-color="rgb(27.416992%, 23.936462%, 73.652649%)" offset="0.859375"/><stop stop-opacity="1" stop-color="rgb(27.592468%, 23.638916%, 73.440552%)" offset="0.867187"/><stop stop-opacity="1" stop-color="rgb(27.767944%, 23.339844%, 73.228455%)" offset="0.875"/><stop stop-opacity="1" stop-color="rgb(27.94342%, 23.042297%, 73.016357%)" offset="0.882812"/><stop stop-opacity="1" stop-color="rgb(28.118896%, 22.744751%, 72.802734%)" offset="0.890625"/><stop stop-opacity="1" stop-color="rgb(28.292847%, 22.447205%, 72.590637%)" offset="0.898437"/><stop stop-opacity="1" stop-color="rgb(28.468323%, 22.149658%, 72.37854%)" offset="0.90625"/><stop stop-opacity="1" stop-color="rgb(28.643799%, 21.852112%, 72.166443%)" offset="0.914062"/><stop stop-opacity="1" stop-color="rgb(28.819275%, 21.554565%, 71.954346%)" offset="0.921875"/><stop stop-opacity="1" stop-color="rgb(28.994751%, 21.255493%, 71.742249%)" offset="0.929687"/><stop stop-opacity="1" stop-color="rgb(29.168701%, 20.957947%, 71.530151%)" offset="0.9375"/><stop stop-opacity="1" stop-color="rgb(29.344177%, 20.6604%, 71.318054%)" offset="0.945312"/><stop stop-opacity="1" stop-color="rgb(29.519653%, 20.362854%, 71.105957%)" offset="0.953125"/><stop stop-opacity="1" stop-color="rgb(29.695129%, 20.065308%, 70.89386%)" offset="0.960938"/><stop stop-opacity="1" stop-color="rgb(29.870605%, 19.767761%, 70.681763%)" offset="0.96875"/><stop stop-opacity="1" stop-color="rgb(30.044556%, 19.470215%, 70.469666%)" offset="0.976562"/><stop stop-opacity="1" stop-color="rgb(30.220032%, 19.171143%, 70.257568%)" offset="0.984375"/><stop stop-opacity="1" stop-color="rgb(30.395508%, 18.873596%, 70.045471%)" offset="0.992188"/><stop stop-opacity="1" stop-color="rgb(30.570984%, 18.57605%, 69.833374%)" offset="1"/></linearGradient></defs><g clip-path="url(#505d3a06ec)"><g clip-path="url(#56b7b3c2fc)"><path fill="url(#9630e4534e)" d="M 326.363281 78.925781 L 318.160156 118.546875 L 357.769531 126.75 L 365.972656 87.128906 Z M 326.363281 78.925781 " fill-rule="nonzero"/></g></g><g clip-path="url(#3161f29c3e)"><g clip-path="url(#c0035833f4)"><path fill="url(#841ca3bf4b)" d="M 325.074219 253.519531 L 316.847656 293.25 L 356.582031 301.480469 L 364.808594 261.75 Z M 325.074219 253.519531 " fill-rule="nonzero"/></g></g><g clip-path="url(#29031f7106)"><g clip-path="url(#5f454e21ec)"><path fill="url(#7521c63155)" d="M 27.269531 -52.125 L -56.734375 353.5625 L 296.824219 426.789062 L 380.824219 21.105469 Z M 27.269531 -52.125 " fill-rule="nonzero"/></g></g><g clip-path="url(#6ab215ffe8)"><g clip-path="url(#493be534d6)"><path fill="url(#97f3f691e3)" d="M 395.582031 123.175781 L 152.101562 -5.214844 L 19.113281 247.054688 L 262.589844 375.445312 Z M 395.582031 123.175781 " fill-rule="nonzero"/></g></g><g clip-path="url(#942b17d205)"><g clip-path="url(#59f25a0dcb)"><path fill="url(#df6456b840)" d="M 92.453125 124.386719 L 73.789062 214.519531 L 222.769531 245.378906 L 241.433594 155.242188 Z M 92.453125 124.386719 " fill-rule="nonzero"/></g></g></svg>